<svg xmlns="http://www.w3.org/2000/svg" xml:space="preserve" width="2048" height="2048" style="shape-rendering:geometricPrecision;text-rendering:geometricPrecision;image-rendering:optimizeQuality;fill-rule:evenodd;clip-rule:evenodd"><defs><style>.fil0{fill:none}.fil4{fill:#543117}.fil5{fill:#bdbdbd;fill-rule:nonzero}</style></defs><g id="Layer_x0020_1"><path class="fil0" d="M255.999 256h1536v1536h-1536z"/><path class="fil0" d="M0 0h2048v2048H0z"/><g id="_527592928"><path id="_527606512" d="M466.83 255.999h139.637v1536H466.83c-38.4 0-69.817-28.799-69.817-64V320c0-35.2 31.416-63.999 69.817-63.999z" style="fill:#734828"/><path id="_527584720" d="M606.467 255.999h977.453c38.4 0 69.817 28.8 69.817 64v1408c0 35.198-31.418 63.999-69.817 63.999H606.467v-1536z" style="fill:#a87246"/><path id="_527594656" d="m1030.77 947.913.043-.01c.959-.257.284-.21-.304-.273l.261.283z" style="fill:#212121;fill-rule:nonzero"/><path id="_527602984" class="fil4" d="M989.277 959.012c-3.204-17.957-4.543-36.425-4.543-57.615 0-25.042 9.06-49.574 23.926-70.188 14.913-20.68 35.919-37.602 59.531-47.105 9.603-3.86 23.35-7.187 36.938-9.111 12.954-1.836 26.46-2.506 36.99-1.297 6.295.726 21.485 4.002 34.797 7.624 11.1 3.02 22.043 6.625 28.218 9.97h.115c3.293 1.784 9.752 6.128 15.871 10.59 5.762 4.198 11.387 8.723 14.213 11.749 25.056 26.837 35.807 53.016 38.95 80.71 2.911 25.642-1.095 50.293-5.914 77.96-2.166 12.419-7.255 27.533-13.506 41.816-6.464 14.769-14.455 29.248-21.92 39.32a177.008 177.008 0 0 1-9.291 11.5c87.985 27.218 191.32 65.091 191.32 180.869v29.11H845.23v-29.11c0-57.241 27.94-97.212 67.326-126.121 35.717-26.215 80.559-42.353 120.79-54.087l-.02-.061 1.468-.437c-5.865-7.018-10.854-14.262-15.305-21.926-5.443-9.366-9.983-19.234-14.342-30.061-7.53-18.722-12.643-36.017-15.87-54.1z"/><circle id="_527596552" class="fil4" cx="500.489" cy="425.052" r="45.826"/><path id="_527591392" class="fil5" d="M390.391 406.313c-14.555 0-26.355 9.847-26.355 21.993 0 12.147 11.8 21.994 26.355 21.994h84.993c14.555 0 26.356-9.847 26.356-21.994 0-12.146-11.8-21.993-26.356-21.993h-84.993z"/><circle id="_527581312" class="fil4" cx="500.489" cy="558.152" r="45.826"/><path id="_527585296" class="fil5" d="M390.391 539.411c-14.555 0-26.355 9.848-26.355 21.994 0 12.146 11.8 21.994 26.355 21.994h84.993c14.555 0 26.356-9.848 26.356-21.994 0-12.146-11.8-21.994-26.356-21.994h-84.993z"/><circle id="_527599240" class="fil4" cx="500.489" cy="691.251" r="45.826"/><path id="_527577952" class="fil5" d="M390.391 672.511c-14.555 0-26.355 9.848-26.355 21.993 0 12.147 11.8 21.995 26.355 21.995h84.993c14.555 0 26.356-9.848 26.356-21.995 0-12.145-11.8-21.993-26.356-21.993h-84.993z"/><circle id="_527588464" class="fil4" cx="500.489" cy="824.351" r="45.826"/><path id="_527576728" class="fil5" d="M390.391 805.61c-14.555 0-26.355 9.847-26.355 21.993 0 12.147 11.8 21.994 26.355 21.994h84.993c14.555 0 26.356-9.847 26.356-21.994 0-12.146-11.8-21.993-26.356-21.993h-84.993z"/><circle id="_527602960" class="fil4" cx="500.489" cy="957.45" r="45.826"/><path id="_527587240" class="fil5" d="M390.391 938.71c-14.555 0-26.355 9.847-26.355 21.993 0 12.147 11.8 21.994 26.355 21.994h84.993c14.555 0 26.356-9.847 26.356-21.994 0-12.146-11.8-21.993-26.356-21.993h-84.993z"/><circle id="_527590696" class="fil4" cx="500.489" cy="1090.55" r="45.826"/><path id="_527596576" class="fil5" d="M390.391 1071.81c-14.555 0-26.355 9.848-26.355 21.994 0 12.146 11.8 21.994 26.355 21.994h84.993c14.555 0 26.356-9.848 26.356-21.993 0-12.147-11.8-21.995-26.356-21.995h-84.993z"/><circle id="_527596432" class="fil4" cx="500.489" cy="1223.65" r="45.826"/><path id="_527595040" class="fil5" d="M390.391 1204.91c-14.555 0-26.355 9.848-26.355 21.993 0 12.147 11.8 21.995 26.355 21.995h84.993c14.555 0 26.356-9.848 26.356-21.995 0-12.145-11.8-21.993-26.356-21.993h-84.993z"/><circle id="_527589472" class="fil4" cx="500.489" cy="1356.75" r="45.826"/><path id="_527606368" class="fil5" d="M390.391 1338.01c-14.555 0-26.355 9.847-26.355 21.993 0 12.147 11.8 21.994 26.355 21.994h84.993c14.555 0 26.356-9.847 26.356-21.994 0-12.146-11.8-21.993-26.356-21.993h-84.993z"/><circle id="_527602480" class="fil4" cx="500.489" cy="1489.85" r="45.826"/><path id="_527594176" class="fil5" d="M390.391 1471.11c-14.555 0-26.355 9.847-26.355 21.993 0 12.147 11.8 21.994 26.355 21.994h84.993c14.555 0 26.356-9.847 26.356-21.994 0-12.146-11.8-21.993-26.356-21.993h-84.993z"/><circle id="_527580616" class="fil4" cx="500.489" cy="1622.95" r="45.826"/><path id="_527588608" class="fil5" d="M390.391 1604.21c-14.555 0-26.355 9.847-26.355 21.993 0 12.147 11.8 21.994 26.355 21.994h84.993c14.555 0 26.356-9.847 26.356-21.994 0-12.146-11.8-21.993-26.356-21.993h-84.993z"/></g></g></svg>